<svg width="21" height="20" viewBox="0 0 21 20" fill="none" xmlns="http://www.w3.org/2000/svg">
<path d="M20.5 8.10006C20.6 7.60006 20.2 7.00006 19.7 7.00006L14 6.20006L11.4 1.00006C11.3 0.800061 11.2 0.70006 11 0.60006C10.5 0.30006 9.9 0.50006 9.6 1.00006L7.1 6.20006L1.4 7.00006C1.1 7.00006 0.9 7.10006 0.8 7.30006C0.4 7.70006 0.4 8.30006 0.8 8.70006L4.9 12.7001L3.9 18.4001C3.9 18.6001 3.9 18.8001 4 19.0001C4.3 19.5001 4.9 19.7001 5.4 19.4001L10.5 16.7001L15.6 19.4001C15.7 19.5001 15.9 19.5001 16.1 19.5001C16.2 19.5001 16.2 19.5001 16.3 19.5001C16.8 19.4001 17.2 18.9001 17.1 18.3001L16.1 12.6001L20.2 8.60006C20.4 8.50006 20.5 8.30006 20.5 8.10006Z" fill="#F1DB63"/>
</svg>
